<?xml version="1.0" standalone="no"?>
<!DOCTYPE svg PUBLIC "-//W3C//DTD SVG 20010904//EN"
 "http://www.w3.org/TR/2001/REC-SVG-20010904/DTD/svg10.dtd">
<svg version="1.0" xmlns="http://www.w3.org/2000/svg"
 width="823.000000pt" height="94.000000pt" viewBox="0 0 823.000000 94.000000"
 preserveAspectRatio="xMidYMid meet">

<g transform="translate(0.000000,94.000000) scale(0.100000,-0.100000)"
fill="#000000" stroke="none">
<path d="M1909 887 c-84 -29 -142 -69 -190 -129 -121 -153 -122 -427 -3 -589
114 -156 367 -204 562 -106 25 12 46 27 49 33 5 14 -84 194 -96 194 -5 0 -25
-7 -46 -16 -51 -21 -152 -21 -191 -1 -155 80 -130 347 35 387 50 12 139 2 180
-20 11 -5 22 -10 26 -10 3 0 27 43 52 97 l46 96 -22 18 c-46 37 -132 61 -236
66 -86 3 -110 0 -166 -20z"/>
<path d="M7520 890 c-74 -27 -120 -66 -154 -133 -24 -46 -29 -69 -28 -120 2
-142 61 -205 280 -297 61 -26 78 -48 57 -76 -19 -27 -95 -23 -169 10 -32 14
-64 26 -70 26 -6 0 -30 -43 -53 -95 -47 -107 -46 -108 28 -145 101 -52 266
-61 370 -21 139 53 208 212 153 350 -24 60 -100 123 -192 160 -140 57 -164 79
-122 112 33 28 83 17 226 -47 10 -5 94 168 94 192 0 17 -108 71 -175 89 -81
21 -178 19 -245 -5z"/>
<path d="M12 463 l3 -428 130 0 130 0 3 148 3 147 84 0 85 0 1 -135 c1 -74 2
-141 3 -147 1 -10 36 -14 133 -16 l133 -3 0 431 0 430 -129 0 -129 0 -7 -27
c-3 -14 -6 -85 -5 -157 1 -72 1 -137 1 -143 -1 -9 -25 -13 -86 -13 l-85 0 0
170 0 170 -135 0 -135 0 2 -427z"/>
<path d="M1055 881 c-8 -14 -285 -831 -285 -842 0 -15 266 -11 278 3 5 7 18
41 27 76 l18 62 116 0 117 0 22 -75 22 -75 140 0 c77 0 140 3 140 8 0 4 -65
196 -144 427 l-143 420 -151 3 c-90 1 -153 -1 -157 -7z m189 -408 c14 -50 26
-97 26 -102 0 -7 -25 -11 -64 -11 l-63 0 31 110 c17 60 34 106 37 102 4 -4 19
-48 33 -99z"/>
<path d="M2402 463 l3 -428 125 0 125 0 5 153 5 153 77 -156 78 -155 161 0
c125 0 160 3 156 13 -2 6 -63 108 -135 225 l-131 212 124 199 c69 110 125 202
125 205 0 3 -69 6 -154 6 l-154 0 -58 -112 c-32 -62 -65 -126 -74 -143 -14
-29 -15 -23 -20 110 l-5 140 -128 3 -127 3 2 -428z"/>
<path d="M3182 463 l3 -428 308 -3 307 -2 0 109 c0 85 -3 110 -14 114 -8 3
-80 6 -160 6 -80 0 -155 1 -166 1 -17 0 -20 7 -20 50 l0 50 129 0 c72 0 132 3
134 8 3 4 8 51 12 105 l7 97 -141 0 -141 0 0 50 0 50 175 0 176 0 -3 108 -3
107 -303 3 -302 2 2 -427z"/>
<path d="M3875 877 c-3 -6 -4 -199 -3 -427 l3 -415 125 0 125 0 3 143 c1 78 6
142 11 142 4 0 39 -64 77 -142 l69 -143 144 -3 c80 -1 148 1 153 6 4 4 -38 82
-94 172 -69 111 -97 165 -88 168 26 9 92 77 113 116 31 58 31 184 0 242 -33
63 -103 118 -171 138 -75 21 -460 24 -467 3z m382 -230 c19 -19 20 -75 0 -94
-7 -8 -38 -15 -68 -16 l-54 -2 -3 69 -3 69 56 -5 c33 -3 63 -11 72 -21z"/>
<path d="M4636 881 c-7 -11 -6 -803 1 -831 5 -19 14 -20 129 -20 l124 0 0 197
c0 123 4 193 9 187 6 -5 56 -92 113 -194 l104 -185 127 -3 127 -3 0 431 0 431
-127 -3 -128 -3 -5 -193 -5 -192 -107 192 -106 193 -125 3 c-71 1 -128 -2
-131 -7z"/>
<path d="M5462 463 l3 -428 305 0 305 0 3 104 c2 77 -1 106 -10 112 -7 5 -87
8 -178 8 l-165 -1 -3 51 -3 50 127 3 128 3 7 27 c4 15 9 60 10 100 l4 73 -137
3 -138 3 0 49 0 50 173 2 172 3 0 105 0 105 -303 3 -302 2 2 -427z"/>
<path d="M6090 884 c0 -12 221 -809 230 -831 9 -22 14 -23 134 -23 109 0 126
2 135 18 5 9 33 110 62 224 29 114 54 206 56 204 2 -2 30 -102 61 -222 l57
-219 126 -3 c93 -2 129 1 136 10 10 13 233 813 233 836 0 9 -39 12 -160 12
-88 0 -160 -2 -160 -4 0 -5 -35 -193 -56 -295 -8 -41 -16 -76 -18 -78 -1 -2
-22 72 -46 164 -62 241 -39 214 -176 211 l-117 -3 -48 -183 c-26 -101 -49
-185 -51 -187 -2 -3 -19 75 -37 173 -19 97 -36 183 -38 190 -4 9 -46 12 -164
12 -87 0 -159 -3 -159 -6z"/>
<path d="M8044 186 c-43 -43 -46 -90 -9 -134 31 -37 73 -48 120 -32 44 15 65
44 65 93 0 49 -13 73 -50 92 -49 25 -88 19 -126 -19z"/>
</g>
</svg>
